<svg xmlns="http://www.w3.org/2000/svg" width="56" height="401" viewBox="0 0 56 401"><style>.st0{fill:#0e0e0f}.st1{fill-opacity:0}.st2,.st3{stroke:#0e0e0f;stroke-width:2;stroke-linecap:round}.st3{fill:#fff;stroke:#000;stroke-miterlimit:10}.st4{fill:none}</style><path d="M43.9 357.6l-5.7-5.6c-.4-.4-1-.6-1.5-.6H14.3c-1.2 0-2.2 1-2.2 2.2v35.2c0 1.2 1 2.2 2.2 2.2h28.1c1.2 0 2.2-1 2.2-2.2v-29.6c0-.6-.2-1.2-.7-1.6zm-1.6.7h-4.8v-4.7l4.8 4.7zm.1 31H14.3c-.3 0-.6-.3-.6-.6v-35.2c0-.3.3-.6.6-.6H36v6.1c0 .5.4.8.8.8H43v28.8c-.1.5-.3.7-.6.7z"/><path d="M34.4 362.8c-.3 0-.4 0-4.1 1.6l.5-3.9c.1-.4-.1-.7-.3-1-.2-.3-.6-.5-.9-.5-.3-.1-.6-.1-.9-.1-4.1.1-7.3 3.3-7.2 7.4.1 4.1 3.3 7.3 7.4 7.2 3.7-.1 6.7-2.8 7.1-6.4.2-1.2 0-2.5-.5-3.6-.1-.3-.6-.7-1.1-.7zm.1 4.3c-.4 2.9-2.8 5-5.7 5-.3 0-.5 0-.7-.1-3.1-.4-5.4-3.1-5-6.3.3-2.9 2.8-5.1 5.7-5.1h.4l-.6 5c-.1.5.3.9.7.9.2 0 .3 0 .4-.1 2-.9 3.8-1.7 4.6-1.9.2.8.3 1.7.2 2.6zm2.8 16.4H19.6c-.5 0-.8.4-.8.8s.4.8.8.8h17.7c.5 0 .8-.4.8-.8s-.4-.8-.8-.8zm0-5H19.6c-.5 0-.8.4-.8.8 0 .5.4.8.8.8h17.7c.5 0 .8-.4.8-.8 0-.5-.4-.8-.8-.8z"/><path id="Shape_29_copy_2_" class="st0" d="M28 130.2H15.7c-.5 0-.8.4-.8.8s.4.8.8.8h12.4c.5 0 .8-.4.8-.8-.2-.4-.5-.8-.9-.8zm0-5.5H15.7c-.5 0-.8.4-.8.8s.4.8.8.8h12.4c.5 0 .8-.4.8-.8-.2-.5-.5-.8-.9-.8zm0-5.6H15.7c-.5 0-.8.4-.8.8s.4.8.8.8H28c.5 0 .8-.4.8-.8s-.4-.8-.8-.8zm-12.3-4h4.5c.5 0 .8-.4.8-.8s-.4-.8-.8-.8h-4.6c-.5 0-.8.4-.8.8s.4.8.9.8zm13.7-13.6c-.4-.4-.9-.6-1.5-.6H10.7c-1.2 0-2.1 1-2.1 2.1v35.5c0 1.2 1 2.1 2.1 2.1h22.8c1.2 0 2.1-1 2.1-2.1v-30c0-.6-.3-1.1-.6-1.5l-5.6-5.5zm4 6.2h-4.7v-4.6l4.7 4.6zm.1 31.3H10.7c-.3 0-.5-.3-.5-.5V103c0-.3.3-.5.5-.5h16.4v6c0 .5.4.8.8.8H34v29.2c.1.3-.2.5-.5.5zM48 101.6c-.3-.5-.7-.7-1.2-.7h-5.6c-.5 0-1 .3-1.2.7-.3.4-.4.8-.4 1.3v25.8c0 .2.1.5.1.7l2.8 9.7c.2.7.8 1.2 1.5 1.3v-.6.6c.5 0 1-.3 1.2-.7l.3-.6 2.8-9.7c.1-.2.1-.5.1-.7v-25.8c0-.5-.1-.9-.4-1.3zm-6.6.9h5.3c.1.1.1.2.1.4v25h-5.5v-25c0-.2 0-.3.1-.4zm3.2 33.8h-1.2l-2-6.8h5.1l-1.9 6.8z"/><g id="Ellipse_629_copy_3_2_"><circle class="st1" cx="13.9" cy="161.1" r="4.3"/><path class="st0" d="M13.9 157.6c1.9 0 3.4 1.6 3.4 3.4s-1.6 3.4-3.4 3.4-3.4-1.6-3.4-3.4c-.1-1.8 1.5-3.4 3.4-3.4m0-1.6c-2.8 0-5.1 2.3-5.1 5.1s2.3 5.1 5.1 5.1 5.1-2.3 5.1-5.1c-.1-2.8-2.3-5.1-5.1-5.1z"/></g><g id="Ellipse_629_copy_3-2_2_"><path class="st1" d="M28.2 165.3c-3.7-.1-6.7-3.1-6.7-6.8 0-3.8 3.1-6.8 6.8-6.8 1.8 0 3.5.8 4.8 2 1.3 1.3 2 3 1.9 4.8 0 3.8-3.1 6.8-6.8 6.8z"/><path class="st0" d="M28.3 152.6c3.3.1 5.9 2.7 5.9 6-.1 3.2-2.7 5.9-6 5.9h-.1c-3.2-.1-5.9-2.7-5.9-6 0-3.2 2.8-5.9 6.1-5.9m0-1.7c-4.2 0-7.6 3.4-7.7 7.6 0 4.2 3.3 7.6 7.6 7.6h.1c4.2 0 7.6-3.3 7.6-7.6 0-4.1-3.4-7.5-7.6-7.6z"/></g><path class="st0" d="M35.4 50.2H22.6c-7.5 0-13.5 6.5-13.5 14.6 0 6.9 4.4 12.8 10.4 14.2v9.2c0 .5.4.8.8.8.2 0 .4-.1.6-.2l10.7-9.5h3.7c7.5 0 13.5-6.5 13.5-14.7.1-8-6-14.4-13.4-14.4zm0 27.6h-4c-.2 0-.4.1-.6.2l-9.6 8.5v-8.1c0-.4-.3-.7-.7-.8-5.7-1.1-9.8-6.5-9.8-12.8 0-7.1 5.3-13 11.8-13h12.8c6.5 0 11.8 5.8 11.8 13s-5.2 13-11.7 13zM41.5 62l-2.4-1.4c-.4-2-2.2-3.5-4.3-3.4-2.1.1-4 1.1-5.2 2.7-1.4-.7-3-1.1-4.6-1-1 0-2 .1-3 .3-.5.1-.9.6-.8 1.1.1.4.5 3.1 2.4 4.9-.7.1-1.4.1-2.1 0-.3-.1-.6-.1-.9-.1-.9-.1-1.6.4-2 1.2-.2.4-.3.9-.1 1.4-.6.2-1 .7-1.2 1.3-.2.7.2 1.5.8 1.9.7.6 1.8.8 3.3.8 1.3 0 2.5-.2 3.8-.5 1.2 1.4 3 2.2 4.8 2.1.3 0 .6 0 .9-.1 7.4-.7 8.4-6.6 8.5-8.5l2-.9c.5-.2.8-.8.6-1.3-.1-.2-.3-.4-.5-.5zm-3.7 2.1c0 1.1-.4 6.8-7.1 7.5-.3 0-.5.1-.8.1-2.5 0-3.4-1.3-3.8-1.8-.2-.3-.4-.4-.7-.4-.1 0-.2 0-.2.1-1.3.4-2.6.5-3.9.6-1.5 0-2.1-.3-2.3-.5l-.2-.2c.3-.3.7-.4 1.1-.5.5-.1.8-.5.7-.9-.1-.2-.2-.4-.3-.5-.2-.1-.3-.3-.3-.5.1-.2.4-.4.6-.3.2 0 .4 0 .7.1.5.1.9.1 1.4.1 1.1 0 2.2-.2 3.2-.6.4-.2.7-.6.5-1-.1-.2-.3-.4-.5-.5-2-.8-2.7-3-3-4.1.7-.1 1.4-.2 2.1-.2 2.3 0 3.7.7 4.3 1.1.4.3.9.2 1.1-.2 1.1-1.6 2.8-2.6 4.4-2.6 1.5 0 2.5.9 2.7 2.5.1.3.2.5.4.6l1.7.9-1.3.4c-.3.2-.5.5-.5.8zM35 60.5c-.6 0-1.1.5-1.1 1.1 0 .6.5 1.1 1.1 1.1s1.1-.5 1.1-1.1c0-.6-.5-1.1-1.1-1.1z"/><path d="M47.6 170.3c-.6-.4-1.3-.4-1.9-.2l-9.9 4.4v-4c0-1.3-1.1-2.4-2.4-2.4H11.2c-1.3 0-2.4 1.1-2.4 2.4v17.1c0 1.3 1.1 2.4 2.4 2.4h22.2c1.3 0 2.4-1.1 2.4-2.4v-4l9.9 4.4c.6.3 1.4.2 1.9-.2.6-.4.9-1 .9-1.7V172c.1-.7-.2-1.3-.9-1.7zm-13.4 17.4c0 .5-.4.8-.8.8H11.2c-.5 0-.8-.4-.8-.8v-17.1c0-.5.4-.8.8-.8h22.2c.5 0 .8.4.8.8v17.1zm12.8-1.6c0 .2-.1.3-.2.4-.1.1-.3.1-.4.1L36.1 182c-.2-.1-.3-.2-.3-.4v-5.1c0-.2.1-.3.3-.4l10.3-4.5c.2-.1.3-.1.4.1.1.1.2.2.2.4v14z"/><g id="Layer_2"><path class="st0" d="M19.5 22c.3.3.8.3 1.2 0 .3-.3.3-.8 0-1.1l-2.3-2.3 2.4-2.4c.3-.3.3-.8 0-1.2-.3-.4-.8-.3-1.2 0l-2.4 2.4-2.3-2.3 5.2-5.2c.3-.3.3-.8 0-1.2-.3-.3-.8-.3-1.2 0l-5.2 5.2-2.4-2.4c-.2-.2-.2-.4 0-.6l8.3-8.2c.2-.2.4-.2.6 0l10.4 10.4c.3.3.8.4 1.2 0 .4-.4.4-.8 0-1.2L21.3 1.5c-.8-.8-2.1-.8-2.8 0l-8.3 8.3c-.8.8-.8 2.1 0 2.8l9.3 9.4zm18.3-3.9c-.3-.3-.8-.3-1.2 0-.3.3-.3.8 0 1.2l10.3 10.2c.2.2.2.4 0 .6l-8.3 8.3c-.2.2-.4.2-.6 0l-2.7-2.7 5.2-5.2c.3-.3.3-.8 0-1.2-.3-.4-.8-.3-1.2 0l-5.1 5.2-2.2-2.3 2.4-2.4c.3-.3.3-.8 0-1.2-.3-.3-.8-.3-1.2 0L30.8 31l-3-3c-.3-.2-.8-.2-1 .1-.3.3-.3.8 0 1.2l7.2 7.2 2.9 2.9c.8.8 2.1.8 2.8 0l8.2-8.2c.8-.8.8-2.1 0-2.8L37.8 18.1z"/><path id="Shape_9_copy" class="st0" d="M47.8 1.6c-.3-.3-.8-.3-1.1-.1l-23 19.3v.1c0 .1 0 0-.1 0l-4.3 4.3c-1.3.2-5.8 1.1-7.2 6.1s-3.5 7.3-3.5 7.3c-.3.3-.3.8 0 1.1.1.1.3.2.4.2 1.2.3 2.4.4 3.7.4 2.1 0 4.8-.4 7.1-2 2.5-1.8 4-4.6 4.4-8.4l4.3-4.3v-.1c0-.1 0 0 0 0L47.8 2.7c.3-.3.3-.8 0-1.1zm-29 35.3c-2.7 1.9-6.2 1.8-8.2 1.6 1.4-2.1 2.5-4.4 3.1-6.8.7-2.6 3-4.6 5.7-4.9l3 3c-.3 3.2-1.5 5.7-3.6 7.1zm4.6-8.6L21 25.9l3.3-3.3 2.4 2.4-3.3 3.3zm4.4-4.4l-2.3-2.3L40.5 9 27.8 23.9z"/></g><path class="st0" d="M35.7 239.5h-5.3v-2.6c0-.5-.4-.8-.8-.8-.5 0-.8.4-.8.8v2.7h-5.3c-.5 0-.8.4-.8.8 0 .5.4.8.8.8h12.2c.5 0 .8-.4.8-.8 0-.6-.3-.9-.8-.9zm-5.4-38.2H29c-4.8 0-8.7 4-8.7 8.7v15.4c0 4.8 3.9 8.7 8.7 8.7h1.3c4.8 0 8.7-4 8.7-8.7V210c0-4.8-3.9-8.7-8.7-8.7zm-1.4 1.6h1.3c3.9 0 7.1 3.2 7.1 7.1v14.1H21.9V210c-.1-3.9 3.1-7.1 7-7.1zm1.4 29.7H29c-3.8 0-6.9-3-7-6.8h15.5c-.3 3.8-3.4 6.8-7.2 6.8zm-3.2-15.1c.6 0 1.1-.5 1.1-1.1 0-.6-.5-1.1-1.1-1.1-.6 0-1.1.5-1.1 1.1 0 .6.5 1.1 1.1 1.1zm5 0c.6 0 1.1-.5 1.1-1.1 0-.6-.5-1.1-1.1-1.1-.6 0-1.1.5-1.1 1.1 0 .6.5 1.1 1.1 1.1zm2.5.2c-.6 0-1.1.5-1.1 1.1s.5 1.1 1.1 1.1 1.1-.5 1.1-1.1c0-.6-.5-1.1-1.1-1.1zm-8.6-6.4c0 .6.5 1.1 1.1 1.1.6 0 1.1-.5 1.1-1.1s-.5-1.1-1.1-1.1c-.6 0-1.1.5-1.1 1.1zm3.6 3.6c.6 0 1.1-.5 1.1-1.1 0-.6-.5-1.1-1.1-1.1-.6 0-1.1.5-1.1 1.1 0 .6.5 1.1 1.1 1.1zm5-4.9c.6 0 1.1-.5 1.1-1.1s-.5-1.1-1.1-1.1-1.1.5-1.1 1.1c-.1.6.5 1.1 1.1 1.1zm-5 0c.6 0 1.1-.5 1.1-1.1s-.5-1.1-1.1-1.1c-.6 0-1.1.5-1.1 1.1 0 .6.5 1.1 1.1 1.1zm-5 4.9c.6 0 1.1-.5 1.1-1.1 0-.6-.5-1.1-1.1-1.1-.6 0-1.1.5-1.1 1.1 0 .6.5 1.1 1.1 1.1zm10 0c.6 0 1.1-.5 1.1-1.1 0-.6-.5-1.1-1.1-1.1s-1.1.5-1.1 1.1c-.1.6.5 1.1 1.1 1.1zm-5 5.1c.6 0 1.1-.5 1.1-1.1s-.5-1.1-1.1-1.1c-.6 0-1.1.5-1.1 1.1 0 .5.5 1.1 1.1 1.1zm-2.5.2c-.6 0-1.1.5-1.1 1.1s.5 1.1 1.1 1.1c.6 0 1.1-.5 1.1-1.1 0-.6-.5-1.1-1.1-1.1zm-2.5-.2c.6 0 1.1-.5 1.1-1.1s-.5-1.1-1.1-1.1c-.6 0-1.1.5-1.1 1.1 0 .5.5 1.1 1.1 1.1zm0-10c.6 0 1.1-.5 1.1-1.1s-.5-1.1-1.1-1.1c-.6 0-1.1.5-1.1 1.1 0 .6.5 1.1 1.1 1.1zm7.5 2.4c.6 0 1.1-.5 1.1-1.1s-.5-1.1-1.1-1.1c-.6 0-1.1.5-1.1 1.1 0 .6.5 1.1 1.1 1.1zm0 10.1c.6 0 1.1-.5 1.1-1.1s-.5-1.1-1.1-1.1c-.6 0-1.1.5-1.1 1.1 0 .6.5 1.1 1.1 1.1zm-5-15.1c.6 0 1.1-.5 1.1-1.1 0-.6-.5-1.1-1.1-1.1-.6 0-1.1.5-1.1 1.1 0 .6.5 1.1 1.1 1.1zm5 0c.6 0 1.1-.5 1.1-1.1 0-.6-.5-1.1-1.1-1.1-.6 0-1.1.5-1.1 1.1 0 .6.5 1.1 1.1 1.1zM5 278.2c.5 0 .8-.4.8-.8V253c0-.2.2-.4.4-.4h44.2c.2 0 .4.2.4.4v24.4c0 .5.4.8.8.8.5 0 .8-.4.8-.8V253c0-1.1-.9-2-2-2H6.3c-1.1 0-2 .9-2 2v24.4c-.1.5.3.8.7.8zm49.9 1.9H30.5c-.5 0-.8.4-.8.8v.4h-2.6v-.5c0-.5-.4-.8-.8-.8H1.8c-.5.1-.8.4-.8.8v2.4c0 1.2 1 2.1 2.2 2.1h50.4c1.2 0 2.2-1 2.2-2.1v-2.4c0-.3-.4-.7-.9-.7zm-.8 3.2c0 .3-.3.6-.6.6H3.2c-.3 0-.6-.3-.6-.6v-1.6h22.9c.2.7.8 1.2 1.5 1.2h2.7c.8 0 1.4-.5 1.5-1.2h22.9v1.6z"/><path class="st2" d="M32.4 258.5l-8.1 14.2"/><path class="st3" d="M20.5 260.3l-5.4 5.4 5.3 5.3m15.9 0l5.4-5.4-5.3-5.3"/><path class="st0" d="M48.3 326.4c-.3-.4-.7-.7-1.1-.7-.6 0-1.4.4-2.3 1.1-1.5 1.2-2.6 1.7-3.4 1.7-1 0-1.5-.8-2.5-2-1.3-1.7-3-4-6.8-4-1.4.1-2.6.7-3.4 1.8-.8-1.1-2.1-1.7-3.4-1.8-3.8 0-5.5 2.3-6.8 4-1 1.3-1.6 2-2.5 2-.8 0-2-.6-3.4-1.7-1-.8-1.7-1.1-2.3-1.1-.4 0-.8.2-1 .5-.2.3-.3.6-.3 1 0 2.9 5.6 10.7 12.3 10.7 2.7 0 5.3-1.2 7.6-3.6 2.4 2.4 4.9 3.6 7.6 3.6 5.4 0 9.6-4.8 11.2-7.7.4-1.1 1.1-2.8.5-3.8zm-3.4 4.9c-2.5 3.1-5.7 5.1-8.6 5.1-2.4 0-4.8-1.2-7-3.7l-.6-.7-.7.7c-2.2 2.4-4.6 3.7-7 3.7-2.9 0-6.1-1.9-8.6-5.1-.9-1.1-1.6-2.3-2-3.7.4.2.7.4 1 .7 1.8 1.4 3.2 2.1 4.5 2.1 1.8 0 2.8-1.4 3.8-2.7 1.3-1.7 2.5-3.3 5.5-3.3 1.3 0 2.2 1.1 2.8 1.9l.7 1 .7-1c.6-.9 1.5-1.9 2.8-1.9 3 0 4.3 1.7 5.5 3.3 1 1.3 2 2.7 3.8 2.7 1.2 0 2.6-.7 4.5-2.1.3-.3.7-.5 1-.7-.6 1.3-1.2 2.6-2.1 3.7z"/><path class="st4" d="M10.9 308.5h-.1"/><path class="st0" d="M48.7 307.8h-.8c-1-4.1-4.7-7.1-9.1-7.1-3.4 0-6.5 1.9-8.1 4.7-.6-.4-1.3-.6-2-.6s-1.5.2-2 .6c-1.6-2.8-4.7-4.7-8.1-4.7-4.4 0-8.1 3-9.1 7.1h-.9c-.4 0-.8.4-.8.8s.4.8.8.8h.6c0 .3-.1.5-.1.8 0 5.2 4.2 9.3 9.4 9.3s9.4-4.2 9.4-9.4c0-.9-.1-1.7-.4-2.5-.1-.3-.2-.5-.3-.8.4-.3.8-.5 1.4-.5s1.1.2 1.4.5c-.1.3-.2.5-.3.8-.3.8-.4 1.7-.4 2.5 0 5.2 4.2 9.3 9.4 9.3s9.4-4.2 9.4-9.3c0-.3 0-.5-.1-.8h.6c.4 0 .8-.4.8-.8s-.3-.7-.7-.7zm-30.2 10.1c-4.3 0-7.9-3.5-7.9-7.9 0-.4 0-.7.1-1 0-.2.1-.3.1-.5 0-.1.1-.2.1-.3.8-3.4 4-6 7.7-6 3.1 0 5.8 1.8 7 4.4.2.3.3.6.4 1 .3.8.4 1.6.4 2.5 0 4.3-3.6 7.8-7.9 7.8zm20.3 0c-4.3 0-7.9-3.5-7.9-7.9 0-.9.2-1.7.4-2.5.1-.3.3-.7.4-1 1.3-2.5 4-4.3 7-4.3 3.7 0 6.7 2.5 7.6 5.8.1.2.1.3.1.5.1.3.1.5.1.8s.1.5.1.8c0 4.3-3.5 7.8-7.8 7.8z"/></svg>